<?xml version="1.0" encoding="iso-8859-1"?><svg viewBox="0 0 512 512" xmlns="http://www.w3.org/2000/svg" xmlns:xlink="http://www.w3.org/1999/xlink"><style>:root>svg{display:none}:root>svg:target{display:block}</style><svg viewBox="0 0 512 512" id="facebook-icon" xmlns="http://www.w3.org/2000/svg"><path d="M448 0H64C28.704 0 0 28.704 0 64v384c0 35.296 28.704 64 64 64h384c35.296 0 64-28.704 64-64V64c0-35.296-28.704-64-64-64z" fill="#1976d2"/><path d="M432 256h-80v-64c0-17.664 14.336-16 32-16h32V96h-64c-53.024 0-96 42.976-96 96v64h-64v80h64v176h96V336h48l32-80z" fill="#fafafa"/></svg><svg viewBox="0 0 46 46" id="gear-icon" xmlns="http://www.w3.org/2000/svg"><style>.bshp0{fill:#e8663c}</style><g id="bFeatures"><g id="bPortfolio"><path id="bicon" class="bshp0" d="M45.99 25.93v-5.88l-4.92-.4c-.17-.96-.43-1.91-.75-2.82l4.06-2.79-2.94-5.1-4.46 2.12c-.63-.74-1.32-1.43-2.06-2.06l2.12-4.46-5.1-2.94-2.8 4.06c-.91-.32-1.85-.58-2.82-.75l-.39-4.92h-5.88l-.4 4.92c-.97.17-1.91.43-2.82.75L14.04 1.6l-5.1 2.94L11.06 9c-.74.63-1.43 1.32-2.06 2.06L4.54 8.94l-2.94 5.1 4.06 2.79c-.33.91-.58 1.86-.76 2.83l-4.91.39v5.88l4.91.4c.18.96.43 1.91.76 2.82L1.6 31.94l2.94 5.1L9 34.92c.63.74 1.32 1.43 2.06 2.06l-2.12 4.46 5.1 2.94 2.79-4.06c.91.33 1.85.58 2.82.75l.4 4.92h5.88l.39-4.92c.97-.17 1.91-.42 2.82-.75l2.8 4.06 5.1-2.94-2.12-4.46c.74-.63 1.43-1.32 2.06-2.06l4.46 2.12 2.94-5.1-4.06-2.79c.32-.91.58-1.86.75-2.82l4.92-.4zm-23 8.56c-6.35 0-11.5-5.15-11.5-11.5s5.15-11.5 11.5-11.5 11.5 5.15 11.5 11.5-5.15 11.5-11.5 11.5z"/></g></g></svg><svg viewBox="0 0 512 512" id="linkedin-icon" xmlns="http://www.w3.org/2000/svg"><g fill="#1976d2"><path d="M0 160h114.496v352H0zM426.368 164.128c-1.216-.384-2.368-.8-3.648-1.152a74.218 74.218 0 00-4.64-.896c-6.08-1.216-12.736-2.08-20.544-2.08-66.752 0-109.088 48.544-123.04 67.296V160H160v352h114.496V320s86.528-120.512 123.04-32v224H512V274.464c0-53.184-36.448-97.504-85.632-110.336z"/><circle cx="56" cy="56" r="56"/></g></svg><svg viewBox="0 0 49 41" id="success-icon" xmlns="http://www.w3.org/2000/svg"><style>.dshp0{fill:#e8663c}</style><g id="dFeatures"><g id="dWork"><path id="dicon" class="dshp0" d="M48.19 9.15l-7.73-7.74c-.9-.9-2.36-.9-3.26 0L19.08 19.54l-7.42-7.42c-.9-.9-2.35-.9-3.25 0L.67 19.85c-.9.9-.9 2.36 0 3.26l8.75 8.74c.08.12.17.23.27.33l7.73 7.73c.43.43 1.02.68 1.63.68.61 0 1.2-.25 1.63-.68L48.19 12.4a2.308 2.308 0 000-3.25z"/></g></g></svg><svg viewBox="0 0 512 512" id="twitter-icon" xmlns="http://www.w3.org/2000/svg"><path d="M512 97.248c-19.04 8.352-39.328 13.888-60.48 16.576 21.76-12.992 38.368-33.408 46.176-58.016-20.288 12.096-42.688 20.64-66.56 25.408C411.872 60.704 384.416 48 354.464 48c-58.112 0-104.896 47.168-104.896 104.992 0 8.32.704 16.32 2.432 23.936-87.264-4.256-164.48-46.08-216.352-109.792-9.056 15.712-14.368 33.696-14.368 53.056 0 36.352 18.72 68.576 46.624 87.232-16.864-.32-33.408-5.216-47.424-12.928v1.152c0 51.008 36.384 93.376 84.096 103.136-8.544 2.336-17.856 3.456-27.52 3.456-6.72 0-13.504-.384-19.872-1.792 13.6 41.568 52.192 72.128 98.08 73.12-35.712 27.936-81.056 44.768-130.144 44.768-8.608 0-16.864-.384-25.12-1.44C46.496 446.88 101.6 464 161.024 464c193.152 0 298.752-160 298.752-298.688 0-4.64-.16-9.12-.384-13.568 20.832-14.784 38.336-33.248 52.608-54.496z" fill="#03a9f4"/></svg><svg viewBox="0 0 42 40" id="user-icon" xmlns="http://www.w3.org/2000/svg"><style>.fshp0{fill:#e8663c}</style><g id="fFeatures"><g id="fConnected"><path id="ficon" class="fshp0" d="M27.8 22.08c3.02-2.23 4.97-5.81 4.97-9.84C32.77 5.48 27.29.01 20.54.01 13.78.01 8.31 5.48 8.31 12.24c0 4.03 1.95 7.61 4.96 9.84C5.51 24.81 0 31.8 0 39.99h41.08c0-8.19-5.52-15.18-13.28-17.91z"/></g></g></svg></svg>