<?xml version="1.0" encoding="utf-8"?><svg viewBox="0 0 512 512" xmlns="http://www.w3.org/2000/svg" xmlns:xlink="http://www.w3.org/1999/xlink"><style>:root>svg{display:none}:root>svg:target{display:block}</style><svg viewBox="0 0 32 41" id="ads-icon" xmlns="http://www.w3.org/2000/svg"><style>.ashp0{fill:#fff}</style><g id="aBlog Section"><g id="apost 5"><g id="aicon copy"><path id="alink" class="ashp0" d="M31.15 10.4l-5.68 9.84a3.26 3.26 0 01-4.44 1.19l-1.4-.82 1.62-2.81c.78.45 1.77.19 2.22-.59l4.05-7.03c.45-.77.19-1.77-.59-2.21l-5.62-3.25c-.78-.45-1.77-.18-2.22.59l-4.05 7.03c-.45.78-.19 1.77.59 2.22l-1.62 2.81-1.41-.81a3.26 3.26 0 01-1.19-4.44l5.68-9.83C17.99.73 19.97.2 21.53 1.1l8.43 4.87c1.55.89 2.08 2.88 1.19 4.43zm-19.2 17.02a1.608 1.608 0 01-.59-2.21l6.49-11.25c.44-.77 1.44-1.04 2.21-.59.78.45 1.05 1.44.6 2.22l-6.49 11.24a1.62 1.62 0 01-2.22.59zm-1.19-4.43c-.78-.45-1.77-.18-2.22.59l-4.05 7.03c-.45.78-.18 1.77.59 2.22l5.62 3.24c.78.45 1.77.19 2.22-.59l4.06-7.03c.44-.77.18-1.77-.6-2.21l1.63-2.81 1.4.81c1.55.89 2.08 2.88 1.19 4.43l-5.68 9.84a3.251 3.251 0 01-4.43 1.19l-8.44-4.87a3.248 3.248 0 01-1.18-4.44l5.67-9.83c.9-1.56 2.89-2.09 4.44-1.19l1.4.81-1.62 2.81z"/></g></g></g></svg><svg viewBox="0 0 512 512" id="facebook-icon" xmlns="http://www.w3.org/2000/svg"><path d="M448 0H64C28.704 0 0 28.704 0 64v384c0 35.296 28.704 64 64 64h384c35.296 0 64-28.704 64-64V64c0-35.296-28.704-64-64-64z" fill="#1976d2"/><path d="M432 256h-80v-64c0-17.664 14.336-16 32-16h32V96h-64c-53.024 0-96 42.976-96 96v64h-64v80h64v176h96V336h48l32-80z" fill="#fafafa"/></svg><svg viewBox="0 0 46 46" id="gear-icon" xmlns="http://www.w3.org/2000/svg"><style>.cshp0{fill:#e8663c}</style><g id="cFeatures"><g id="cPortfolio"><path id="cicon" class="cshp0" d="M45.99 25.93v-5.88l-4.92-.4c-.17-.96-.43-1.91-.75-2.82l4.06-2.79-2.94-5.1-4.46 2.12c-.63-.74-1.32-1.43-2.06-2.06l2.12-4.46-5.1-2.94-2.8 4.06c-.91-.32-1.85-.58-2.82-.75l-.39-4.92h-5.88l-.4 4.92c-.97.17-1.91.43-2.82.75L14.04 1.6l-5.1 2.94L11.06 9c-.74.63-1.43 1.32-2.06 2.06L4.54 8.94l-2.94 5.1 4.06 2.79c-.33.91-.58 1.86-.76 2.83l-4.91.39v5.88l4.91.4c.18.96.43 1.91.76 2.82L1.6 31.94l2.94 5.1L9 34.92c.63.74 1.32 1.43 2.06 2.06l-2.12 4.46 5.1 2.94 2.79-4.06c.91.33 1.85.58 2.82.75l.4 4.92h5.88l.39-4.92c.97-.17 1.91-.42 2.82-.75l2.8 4.06 5.1-2.94-2.12-4.46c.74-.63 1.43-1.32 2.06-2.06l4.46 2.12 2.94-5.1-4.06-2.79c.32-.91.58-1.86.75-2.82l4.92-.4zm-23 8.56c-6.35 0-11.5-5.15-11.5-11.5s5.15-11.5 11.5-11.5 11.5 5.15 11.5 11.5-5.15 11.5-11.5 11.5z"/></g></g></svg><svg viewBox="0 0 512 512" id="linkedin-icon" xmlns="http://www.w3.org/2000/svg"><g fill="#1976d2"><path d="M0 160h114.496v352H0zM426.368 164.128c-1.216-.384-2.368-.8-3.648-1.152a74.218 74.218 0 00-4.64-.896c-6.08-1.216-12.736-2.08-20.544-2.08-66.752 0-109.088 48.544-123.04 67.296V160H160v352h114.496V320s86.528-120.512 123.04-32v224H512V274.464c0-53.184-36.448-97.504-85.632-110.336z"/><circle cx="56" cy="56" r="56"/></g></svg><svg fill="#fff" viewBox="0 0 512 512" id="news-icon" xmlns="http://www.w3.org/2000/svg"><path d="M502 0H98c-5.522 0-10 4.477-10 10v44H54c-5.522 0-10 4.478-10 10v54H10c-5.523 0-10 4.478-10 10v330c0 29.775 24.225 54 54 54h404c29.775 0 54-24.225 54-54V10c0-5.523-4.478-10-10-10zm-10 458c0 18.748-15.252 34-34 34H95.912c7.55-9.29 12.088-21.123 12.088-34V323.003c0-5.522-4.478-10-10-10s-10 4.478-10 10V458c0 18.748-15.252 34-34 34s-34-15.252-34-34V138h24v310c0 5.522 4.478 10 10 10s10-4.478 10-10V74h24v159.003c0 5.523 4.478 10 10 10s10-4.477 10-10V20h384z"/><path d="M146 158h308c5.522 0 10-4.477 10-10V76c0-5.522-4.478-10-10-10H146c-5.523 0-10 4.478-10 10v72c0 5.523 4.477 10 10 10zm10-72h288v52H156zM146 398h154c5.522 0 10-4.478 10-10V196c0-5.523-4.478-10-10-10H146c-5.523 0-10 4.477-10 10v192c0 5.522 4.477 10 10 10zm10-192h134v172H156zM454 186H348c-5.522 0-10 4.477-10 10s4.478 10 10 10h106c5.522 0 10-4.477 10-10s-4.478-10-10-10zM454 234H348c-5.522 0-10 4.477-10 10s4.478 10 10 10h106c5.522 0 10-4.477 10-10s-4.478-10-10-10zM454 282H348c-5.522 0-10 4.478-10 10s4.478 10 10 10h106c5.522 0 10-4.478 10-10s-4.478-10-10-10zM454 330H348c-5.522 0-10 4.478-10 10s4.478 10 10 10h106c5.522 0 10-4.478 10-10s-4.478-10-10-10zM454 378H348c-5.522 0-10 4.478-10 10s4.478 10 10 10h106c5.522 0 10-4.478 10-10s-4.478-10-10-10zM146 446h308c5.522 0 10-4.478 10-10s-4.478-10-10-10H146c-5.523 0-10 4.478-10 10s4.477 10 10 10zM98.5 268c-2.63 0-5.21 1.069-7.07 2.93A10.076 10.076 0 0088.5 278c0 2.64 1.069 5.21 2.93 7.069 1.86 1.87 4.44 2.931 7.07 2.931s5.21-1.06 7.069-2.931c1.86-1.859 2.931-4.439 2.931-7.069s-1.07-5.21-2.931-7.07A10.067 10.067 0 0098.5 268z"/></svg><svg fill="#fff" viewBox="0 0 512 512" id="photo-icon" xmlns="http://www.w3.org/2000/svg"><path d="M497 73.344H390.237V26.64c0-8.284-6.716-15-15-15H15c-8.284 0-15 6.716-15 15v397.017c0 8.284 6.716 15 15 15h106.763v46.704c0 8.284 6.716 15 15 15H497c8.284 0 15-6.716 15-15V88.344c0-8.284-6.716-15-15-15zm-106.763 91.703h30.06v243.609h-30.06zM30 408.656V41.64h330.237v367.017H30zm452 61.704H151.763v-31.704H435.298c8.284 0 15-6.716 15-15V150.047c0-8.284-6.716-15-15-15h-45.06v-31.703H482z"/><path d="M313.534 376.953H75.059c-8.284 0-15-6.716-15-15V88.344c0-8.284 6.716-15 15-15h238.476c8.284 0 15 6.716 15 15v273.609c-.001 8.284-6.717 15-15.001 15zm-223.475-30h208.476V103.344H90.059z"/><path d="M194.105 295.529h-.045a14.998 14.998 0 01-10.604-4.436l-45.363-45.724c-9.784-9.865-15.172-22.941-15.172-36.822 0-.801.018-1.597.053-2.388.809-18.026 11.684-33.594 28.38-40.632 14.244-6.005 29.956-4.74 42.726 3.061 12.598-7.859 28.239-9.345 42.388-3.674 16.303 6.533 27.41 21.412 28.987 38.83.145 1.594.217 3.208.217 4.803 0 13.987-5.329 27.063-15.006 36.819l-.065.065-45.91 45.725a14.997 14.997 0 01-10.586 4.373zM169.834 191.76c-2.27 0-4.578.465-6.826 1.413-2.887 1.217-9.646 5.049-10.063 14.327a22.59 22.59 0 00-.023 1.048c0 5.914 2.298 11.488 6.471 15.695l34.776 35.053 35.223-35.08c4.05-4.098 6.28-9.661 6.28-15.668 0-.699-.032-1.406-.095-2.103-.812-8.96-7.452-12.555-10.27-13.684-6.103-2.446-12.683-1.343-17.595 2.948l-3.739 3.267a15 15 0 01-19.85-.101l-3.104-2.768c-3.217-2.867-7.137-4.347-11.185-4.347zm70.182 43.045h.01z"/></svg><svg viewBox="0 0 26 22" id="quote-icon" xmlns="http://www.w3.org/2000/svg"><style>tspan{white-space:pre}.gtxt0{font-size:80px;line-height:18px;fill:#fff;font-family:"Georgia"}</style><g id="gBlog Section"><g id="gpost 4"><g id="gicon"><text id="g“" transform="translate(-3 60)"><tspan x="0" y="0" class="gtxt0">“</tspan></text></g></g></g></svg><svg viewBox="0 0 26 22" id="red-quote-icon" xmlns="http://www.w3.org/2000/svg"><style>tspan{white-space:pre}.htxt0{font-size:80px;line-height:18px;fill:#e8603c;font-family:"Georgia"}</style><g id="hBlog Section"><g id="hpost 4"><g id="hicon"><text id="h“" transform="translate(-3 60)"><tspan x="0" y="0" class="htxt0">“</tspan></text></g></g></g></svg><svg viewBox="0 0 49 41" id="success-icon" xmlns="http://www.w3.org/2000/svg"><style>.ishp0{fill:#e8663c}</style><g id="iFeatures"><g id="iWork"><path id="iicon" class="ishp0" d="M48.19 9.15l-7.73-7.74c-.9-.9-2.36-.9-3.26 0L19.08 19.54l-7.42-7.42c-.9-.9-2.35-.9-3.25 0L.67 19.85c-.9.9-.9 2.36 0 3.26l8.75 8.74c.08.12.17.23.27.33l7.73 7.73c.43.43 1.02.68 1.63.68.61 0 1.2-.25 1.63-.68L48.19 12.4a2.308 2.308 0 000-3.25z"/></g></g></svg><svg viewBox="0 0 512 512" id="twitter-icon" xmlns="http://www.w3.org/2000/svg"><path d="M512 97.248c-19.04 8.352-39.328 13.888-60.48 16.576 21.76-12.992 38.368-33.408 46.176-58.016-20.288 12.096-42.688 20.64-66.56 25.408C411.872 60.704 384.416 48 354.464 48c-58.112 0-104.896 47.168-104.896 104.992 0 8.32.704 16.32 2.432 23.936-87.264-4.256-164.48-46.08-216.352-109.792-9.056 15.712-14.368 33.696-14.368 53.056 0 36.352 18.72 68.576 46.624 87.232-16.864-.32-33.408-5.216-47.424-12.928v1.152c0 51.008 36.384 93.376 84.096 103.136-8.544 2.336-17.856 3.456-27.52 3.456-6.72 0-13.504-.384-19.872-1.792 13.6 41.568 52.192 72.128 98.08 73.12-35.712 27.936-81.056 44.768-130.144 44.768-8.608 0-16.864-.384-25.12-1.44C46.496 446.88 101.6 464 161.024 464c193.152 0 298.752-160 298.752-298.688 0-4.64-.16-9.12-.384-13.568 20.832-14.784 38.336-33.248 52.608-54.496z" fill="#03a9f4"/></svg><svg viewBox="0 0 42 40" id="user-icon" xmlns="http://www.w3.org/2000/svg"><style>.kshp0{fill:#e8663c}</style><g id="kFeatures"><g id="kConnected"><path id="kicon" class="kshp0" d="M27.8 22.08c3.02-2.23 4.97-5.81 4.97-9.84C32.77 5.48 27.29.01 20.54.01 13.78.01 8.31 5.48 8.31 12.24c0 4.03 1.95 7.61 4.96 9.84C5.51 24.81 0 31.8 0 39.99h41.08c0-8.19-5.52-15.18-13.28-17.91z"/></g></g></svg><svg viewBox="0 0 27 32" id="video-icon" xmlns="http://www.w3.org/2000/svg"><style>.lshp0{fill:#fff}</style><g id="lBlog Section"><g id="lPost 3"><g id="licon"><path id="licon" class="lshp0" d="M.06 31.97L0 32V0l26.67 15.93L.06 31.97z"/></g></g></g></svg></svg>