<svg xmlns="http://www.w3.org/2000/svg" viewBox="0 0 32 41" width="32" height="41">
	<style>
		tspan { white-space:pre }
		.shp0 { fill: #ffffff } 
	</style>
	<g id="Blog Section">
		<g id="post 5">
			<g id="icon copy">
				<path id="link" class="shp0" d="M31.15 10.4L25.47 20.24C24.57 21.79 22.59 22.32 21.03 21.43L19.63 20.61L21.25 17.8L21.25 17.8C22.03 18.25 23.02 17.99 23.47 17.21L27.52 10.18C27.97 9.41 27.71 8.41 26.93 7.97L21.31 4.72C20.53 4.27 19.54 4.54 19.09 5.31L15.04 12.34C14.59 13.12 14.85 14.11 15.63 14.56L14.01 17.37L12.6 16.56C11.05 15.66 10.52 13.68 11.41 12.12L17.09 2.29C17.99 0.73 19.97 0.2 21.53 1.1L29.96 5.97C31.51 6.86 32.04 8.85 31.15 10.4ZM11.95 27.42C11.17 26.98 10.91 25.98 11.36 25.21L17.85 13.96C18.29 13.19 19.29 12.92 20.06 13.37C20.84 13.82 21.11 14.81 20.66 15.59L14.17 26.83C13.72 27.61 12.73 27.87 11.95 27.42ZM10.76 22.99L10.76 22.99C9.98 22.54 8.99 22.81 8.54 23.58L4.49 30.61C4.04 31.39 4.31 32.38 5.08 32.83L10.7 36.07C11.48 36.52 12.47 36.26 12.92 35.48L16.98 28.45C17.42 27.68 17.16 26.68 16.38 26.24L16.38 26.24L18.01 23.43L19.41 24.24C20.96 25.13 21.49 27.12 20.6 28.67L14.92 38.51C14.02 40.06 12.04 40.59 10.49 39.7L2.05 34.83C0.5 33.93 -0.03 31.95 0.87 30.39L6.54 20.56C7.44 19 9.43 18.47 10.98 19.37L12.38 20.18L10.76 22.99Z" />
			</g>
		</g>
	</g>
</svg>