<svg id="Capa_1" enable-background="new 0 0 512 512" height="512" viewBox="0 0 512 512" width="512" fill="#fff" xmlns="http://www.w3.org/2000/svg"><g><path d="m497 73.344h-106.763v-46.704c0-8.284-6.716-15-15-15h-360.237c-8.284 0-15 6.716-15 15v397.017c0 8.284 6.716 15 15 15h106.763v46.704c0 8.284 6.716 15 15 15h360.237c8.284 0 15-6.716 15-15v-397.017c0-8.284-6.716-15-15-15zm-106.763 91.703h30.06v243.609h-30.06zm-360.237 243.609v-367.016h330.237v367.017h-330.237zm452 61.704h-330.237v-31.704h223.475 60.06c8.284 0 15-6.716 15-15v-273.609c0-8.284-6.716-15-15-15h-45.06v-31.703h91.762z"/><path d="m313.534 376.953h-238.475c-8.284 0-15-6.716-15-15v-273.609c0-8.284 6.716-15 15-15h238.476c8.284 0 15 6.716 15 15v273.609c-.001 8.284-6.717 15-15.001 15zm-223.475-30h208.476v-243.609h-208.476z"/><path d="m194.105 295.529c-.015 0-.029 0-.045 0-3.983-.012-7.798-1.607-10.604-4.436l-45.363-45.724c-9.784-9.865-15.172-22.941-15.172-36.822 0-.801.018-1.597.053-2.388.809-18.026 11.684-33.594 28.38-40.632 14.244-6.005 29.956-4.74 42.726 3.061 12.598-7.859 28.239-9.345 42.388-3.674 16.303 6.533 27.41 21.412 28.987 38.83.145 1.594.217 3.208.217 4.803 0 13.987-5.329 27.063-15.006 36.819-.021.022-.044.044-.065.065l-45.91 45.725c-2.812 2.802-6.619 4.373-10.586 4.373zm-24.271-103.769c-2.27 0-4.578.465-6.826 1.413-2.887 1.217-9.646 5.049-10.063 14.327-.016.344-.023.694-.023 1.048 0 5.914 2.298 11.488 6.471 15.695l34.776 35.053 35.223-35.08c4.05-4.098 6.28-9.661 6.28-15.668 0-.699-.032-1.406-.095-2.103-.812-8.96-7.452-12.555-10.27-13.684-6.103-2.446-12.683-1.343-17.595 2.948l-3.739 3.267c-5.695 4.975-14.205 4.933-19.85-.101l-3.104-2.768c-3.217-2.867-7.137-4.347-11.185-4.347zm70.182 43.045h.01z"/></g></svg>